<svg width="23" height="23" viewBox="0 0 23 23" fill="none" xmlns="http://www.w3.org/2000/svg">
<path d="M18.9676 13.8674C18.4762 13.3558 17.8836 13.0822 17.2555 13.0822C16.6325 13.0822 16.0347 13.3507 15.5231 13.8623L13.9225 15.4579C13.7908 15.387 13.6591 15.3211 13.5325 15.2553C13.3501 15.1641 13.1779 15.078 13.031 14.9868C11.5316 14.0345 10.1691 12.7935 8.86219 11.1878C8.22902 10.3875 7.80353 9.71376 7.49454 9.02994C7.9099 8.65004 8.29487 8.25494 8.6697 7.87504C8.81153 7.7332 8.95336 7.58631 9.09519 7.44448C10.1589 6.38075 10.1589 5.00297 9.09519 3.93925L7.71235 2.5564C7.55532 2.39938 7.39323 2.23729 7.24127 2.07519C6.93735 1.76114 6.61823 1.43696 6.28898 1.13304C5.79764 0.646761 5.21006 0.388428 4.59208 0.388428C3.97411 0.388428 3.3764 0.646761 2.86986 1.13304C2.8648 1.1381 2.8648 1.1381 2.85973 1.14317L1.13751 2.88059C0.48914 3.52895 0.119368 4.31915 0.0383222 5.23598C-0.0832466 6.71507 0.352375 8.09285 0.686689 8.99448C1.50728 11.208 2.7331 13.2595 4.56169 15.4579C6.78032 18.1071 9.44977 20.1991 12.4991 21.6731C13.6642 22.2252 15.2192 22.8786 16.9566 22.9901C17.063 22.9951 17.1744 23.0002 17.2758 23.0002C18.4459 23.0002 19.4285 22.5798 20.1985 21.744C20.2035 21.7339 20.2137 21.7288 20.2187 21.7187C20.4821 21.3996 20.7861 21.1108 21.1052 20.8018C21.323 20.5942 21.5459 20.3764 21.7637 20.1484C22.2651 19.6267 22.5285 19.0188 22.5285 18.3958C22.5285 17.7677 22.2601 17.1649 21.7485 16.6584L18.9676 13.8674ZM20.781 19.2012C20.7759 19.2012 20.7759 19.2063 20.781 19.2012C20.5834 19.4139 20.3808 19.6064 20.163 19.8192C19.8338 20.1332 19.4995 20.4625 19.1854 20.8322C18.6738 21.3793 18.071 21.6376 17.2808 21.6376C17.2048 21.6376 17.1238 21.6376 17.0478 21.6326C15.5434 21.5363 14.1454 20.9487 13.0968 20.4473C10.2298 19.0594 7.71235 17.0889 5.62035 14.5917C3.89306 12.5098 2.73816 10.585 1.97329 8.51834C1.50221 7.25706 1.32999 6.27438 1.40597 5.34742C1.45662 4.75477 1.68457 4.26343 2.10499 3.84301L3.83228 2.11572C4.08048 1.88271 4.34388 1.75608 4.60222 1.75608C4.92133 1.75608 5.17967 1.94856 5.34176 2.11065C5.34682 2.11572 5.35189 2.12078 5.35695 2.12585C5.66594 2.41457 5.95973 2.71343 6.26872 3.03255C6.42575 3.19464 6.58784 3.35673 6.74993 3.52389L8.13277 4.90673C8.6697 5.44366 8.6697 5.94007 8.13277 6.477C7.98588 6.62389 7.84405 6.77079 7.69715 6.91262C7.27166 7.34824 6.86643 7.75347 6.42575 8.14857C6.41562 8.1587 6.40549 8.16376 6.40042 8.17389C5.9648 8.60951 6.04584 9.035 6.13702 9.32373C6.14209 9.33893 6.14715 9.35412 6.15222 9.36932C6.51186 10.2406 7.01839 11.0611 7.78833 12.0388L7.7934 12.0438C9.19144 13.7661 10.6655 15.1084 12.2914 16.1366C12.4991 16.2683 12.7119 16.3747 12.9145 16.476C13.0968 16.5672 13.2691 16.6533 13.4159 16.7445C13.4362 16.7546 13.4565 16.7698 13.4767 16.7799C13.649 16.8661 13.811 16.9066 13.9782 16.9066C14.3986 16.9066 14.662 16.6432 14.7481 16.5571L16.4805 14.8247C16.6527 14.6525 16.9262 14.4448 17.2454 14.4448C17.5594 14.4448 17.8178 14.6424 17.9748 14.8146C17.9798 14.8196 17.9798 14.8196 17.9849 14.8247L20.7759 17.6157C21.2977 18.1324 21.2977 18.6643 20.781 19.2012Z" fill="#FF4763"/>
</svg>
